<svg xmlns="http://www.w3.org/2000/svg" viewBox="0 0 89.005 60" class="font"><defs><linearGradient gradientTransform="rotate(25)" id="a" x1="0%" y1="0%" x2="100%" y2="0%"><stop offset="0%" stop-color="#f00079"/><stop offset="100%" stop-color="#f2a041"/></linearGradient></defs><path d="M1.12 3.29c0 .15.05.28.15.38.11.1.23.15.38.15s.28-.05.38-.15c.1-.1.15-.23.15-.38a.52.52 0 0 0-.15-.38.52.52 0 0 0-.38-.15c-.15 0-.27.05-.38.15-.1.1-.15.23-.15.38zm.18 2.87v6.44H2V6.16zm3.21 3.22c0-.76.23-1.38.7-1.88.48-.5 1.09-.75 1.85-.75.49 0 .92.1 1.3.3.37.2.64.45.8.76v-.94c-.48-.55-1.18-.82-2.1-.82-.93 0-1.7.31-2.33.94-.62.63-.94 1.43-.94 2.39 0 .96.32 1.76.94 2.39.63.63 1.4.94 2.33.94.93 0 1.63-.27 2.1-.82v-.94c-.16.31-.43.56-.8.76-.38.2-.81.3-1.3.3-.76 0-1.37-.25-1.85-.75-.47-.5-.7-1.12-.7-1.88zm10.67.7c0 .53-.2.99-.58 1.37-.38.37-.85.56-1.41.56-.56 0-.94-.15-1.14-.45-.2-.31-.3-.75-.3-1.34V6.16h-.7v4.2c0 .82.16 1.42.49 1.79.33.38.84.56 1.51.56 1.02 0 1.73-.4 2.13-1.22v1.11h.7V6.16h-.7z" fill="url(#a)" transform="translate(-6.754 -16.643) scale(6.03015)"/></svg>